<svg width="21" height="22" viewBox="0 0 21 22" fill="none" xmlns="http://www.w3.org/2000/svg">
<path d="M19.4561 0.299805H2.30881C1.5231 0.299805 0.884705 0.979492 0.884705 1.81387V19.7857C0.884705 20.6201 1.5231 21.2998 2.30881 21.2998H19.4561C20.2418 21.2998 20.8847 20.6201 20.8847 19.7857V1.81387C20.8847 0.979492 20.2418 0.299805 19.4561 0.299805ZM6.92935 18.2998H3.96506V8.27793H6.93381V18.2998H6.92935ZM5.4472 6.90918C4.49631 6.90918 3.72845 6.09824 3.72845 5.10449C3.72845 4.11074 4.49631 3.2998 5.4472 3.2998C6.39363 3.2998 7.16595 4.11074 7.16595 5.10449C7.16595 6.10293 6.3981 6.90918 5.4472 6.90918ZM18.041 18.2998H15.0767V13.4248C15.0767 12.2623 15.0543 10.767 13.5365 10.767C11.9918 10.767 11.7552 12.0326 11.7552 13.3404V18.2998H8.79096V8.27793H11.6347V9.64668H11.6749C12.0722 8.85918 13.041 8.02949 14.4829 8.02949C17.4829 8.02949 18.041 10.1061 18.041 12.8061V18.2998Z" fill="#1074AF"/>
</svg>
